<svg x="0" y="0" width="2160" height="1080" viewBox="0 0 2160 1080" xmlns="http://www.w3.org/2000/svg" xmlns:xlink="http://www.w3.org/1999/xlink" xmlns:fi="http://pattern.flaticon.com/"><rect x="0px" y="0px" width="100%" height="100%" opacity="0" fill="#ffffff"/><defs><g transform="matrix(0.1171875 0 0 0.1171875 286 307)" id="L1_0"><path d="m470.949 396.925h-429.898c-18.531 0-33.554-15.022-33.554-33.554v-6.606c0-18.531 15.022-33.554 33.554-33.554h429.897c18.531 0 33.554 15.022 33.554 33.554v6.606c0 18.532-15.022 33.554-33.553 33.554z" fill="#e94444"/><path d="m470.949 265.16h-429.898c-18.531 0-33.554-15.022-33.554-33.554v-6.606c0-18.531 15.022-33.554 33.554-33.554h429.897c18.531 0 33.554 15.022 33.554 33.554v6.606c0 18.532-15.022 33.554-33.553 33.554z" fill="#9e5528"/><path d="m504.5 356.761v6.608c0 18.535-15.016 33.561-33.551 33.561h-19.634c18.535 0 33.55-15.026 33.55-33.561v-6.608c0-18.525-15.016-33.551-33.55-33.551h19.634c18.535.001 33.551 15.027 33.551 33.551z" fill="#d83131"/><path d="m504.5 224.999v6.608c0 18.535-15.016 33.551-33.551 33.551h-19.634c18.535 0 33.55-15.016 33.55-33.551v-6.608c0-18.525-15.016-33.551-33.55-33.551h19.634c18.535 0 33.551 15.026 33.551 33.551z" fill="#904d24"/><path d="m256 8.254c-167.585 2.426-223.89 93.332-242.479 146.152-6.369 18.099 7.21 37.04 26.398 37.04h216.081 216.079c19.329 0 32.735-19.132 26.289-37.355-18.701-52.865-75.115-143.416-242.368-145.837z" fill="#fe9738"/><path d="m472.079 191.448h-2.389c6.508-7.258 9.187-17.825 5.559-28.102-18.705-52.875-75.119-143.42-242.372-145.839-43.268.62-79.128 7.148-108.819 17.395 33.67-15.465 76.778-25.852 131.942-26.652 167.253 2.429 223.667 92.974 242.372 145.839 6.438 18.224-6.968 37.359-26.293 37.359z" fill="#fe860a"/><path d="m470.949 396.925h-214.949-214.949s-14.825 71.587 69.539 99.75c14.452 4.824 29.539 7.07 44.669 7.07h100.741 100.74c15.13 0 30.217-2.246 44.669-7.07 84.365-28.163 69.54-99.75 69.54-99.75z" fill="#fe9738"/><path d="m401.409 496.672c-14.456 4.829-29.542 7.078-44.667 7.078h-22.774c15.136 0 30.221-2.249 44.677-7.078 84.356-28.162 69.53-99.742 69.53-99.742h22.774s14.826 71.58-69.54 99.742z" fill="#fe860a"/><path d="m471.735 336.576c0 16.752-19.465 25.834-32.407 15.197-5.32-4.373-11.603-7.837-21.56-7.837-26.98 0-26.98 21.372-53.96 21.372-26.981 0-26.981-21.372-53.961-21.372-26.979 0-26.979 21.372-53.959 21.372-26.979 0-26.979-21.372-53.958-21.372-26.981 0-26.981 21.372-53.961 21.372-26.979 0-26.979-21.372-53.959-21.372-9.953 0-16.234 3.463-21.552 7.833-12.943 10.636-32.408 1.557-32.408-15.196v-39.646h431.686v39.649z" fill="#bbec6c"/><path d="m471.739 296.928v39.649c0 15.676-17.045 24.633-29.832 17.005 5.648-3.299 9.707-9.347 9.707-17.005v-39.649z" fill="#a2e62e"/><path d="m40.265 265.16v32.062h46.279c9.628 0 17.432 7.805 17.432 17.432v92.341c0 12.309 9.978 22.287 22.287 22.287 12.309 0 22.287-9.978 22.287-22.287v-92.341c0-9.628 7.805-17.432 17.432-17.432h305.752v-32.062z" fill="#fee45a"/><path d="m451.615 265.157h20.124v32.061h-20.124z" fill="#fedf30"/><g><path d="m186.826 85.343c2.665 0 5.247-1.425 6.603-3.935l6.504-12.035c1.969-3.643.612-8.192-3.031-10.161-3.646-1.969-8.193-.61-10.161 3.031l-6.504 12.035c-1.969 3.643-.612 8.193 3.031 10.161 1.133.613 2.353.904 3.558.904z"/><path d="m263.408 78.666v-13.68c0-4.141-3.357-7.498-7.498-7.498s-7.498 3.357-7.498 7.498v13.68c0 4.141 3.357 7.498 7.498 7.498s7.498-3.357 7.498-7.498z"/><path d="m325.175 85.242c1.277 0 2.571-.327 3.755-1.013 3.582-2.078 4.802-6.666 2.724-10.248l-6.863-11.834c-2.078-3.582-6.666-4.801-10.248-2.724-3.582 2.078-4.802 6.666-2.724 10.248l6.863 11.834c1.391 2.397 3.907 3.737 6.493 3.737z"/><path d="m512 231.606v-6.606c0-14.005-7.054-26.388-17.791-33.8 2.527-2.041 4.806-4.445 6.756-7.203 6.651-9.406 8.322-21.521 4.471-32.406-9.3-26.29-28.628-64.149-67.893-95.215-45.273-35.818-106.316-54.532-181.435-55.619-.072-.001-.145-.001-.217 0-33.951.491-65.402 4.645-93.479 12.346-3.993 1.095-6.343 5.221-5.248 9.214s5.22 6.345 9.214 5.248c26.826-7.358 56.978-11.332 89.621-11.812 162.214 2.39 217.053 89.26 235.298 140.839 2.263 6.396 1.323 13.229-2.578 18.748-3.868 5.471-9.934 8.609-16.642 8.609h-432.158c-6.733 0-12.831-3.156-16.728-8.66-3.851-5.437-4.797-12.142-2.597-18.394 13.301-37.796 43.846-89.012 113.825-118.36 3.819-1.602 5.617-5.995 4.015-9.814-1.602-3.82-5.998-5.615-9.814-4.015-34.074 14.29-62.586 34.936-84.742 61.364-16.303 19.445-28.896 41.599-37.429 65.847-3.836 10.902-2.195 22.58 4.505 32.039 1.951 2.756 4.271 5.174 6.855 7.232-10.748 7.411-17.809 19.8-17.809 33.812v6.606c0 19.799 14.089 36.368 32.767 40.211l-.15 44.776c-18.602 3.901-32.617 20.428-32.617 40.172v6.606c0 19.788 14.074 36.349 32.737 40.204-.503 7.891-.245 20.697 4.305 34.945 12.263 38.4 45.474 56.688 71.174 65.267 14.821 4.947 30.649 7.456 47.044 7.456h201.481c16.395 0 32.222-2.509 47.043-7.456 25.701-8.58 58.912-26.867 71.174-65.267 4.55-14.247 4.808-27.054 4.305-34.945 18.663-3.854 32.737-20.416 32.737-40.204v-6.606c0-19.797-14.091-36.352-32.767-40.194v-44.754c18.678-3.842 32.767-20.412 32.767-40.211zm-497.004 131.765v-6.606c0-11.394 7.361-21.081 17.57-24.611l-.015 4.419c0 10.643 5.969 20.075 15.576 24.616 9.663 4.567 20.811 3.177 29.09-3.627 3.873-3.183 8.588-6.128 16.792-6.128.863 0 1.676.035 2.469.084v37.909h-55.427c-14.367 0-26.055-11.689-26.055-26.056zm298.792-58.651h150.449v31.856c0 4.857-2.613 8.991-6.988 11.058-4.432 2.094-9.351 1.476-13.16-1.654-5.406-4.443-13.283-9.543-26.321-9.543-16.099 0-24.353 6.538-31.635 12.307-6.394 5.065-11.445 9.065-22.325 9.065-10.881 0-15.931-4-22.325-9.065-7.282-5.768-15.536-12.307-31.636-12.307s-24.714 6.824-31.636 12.307c-6.394 5.065-11.444 9.065-22.323 9.065-10.88 0-15.93-4-22.323-9.065-6.921-5.483-15.536-12.307-31.635-12.307-16.1 0-24.353 6.538-31.636 12.307-4.558 3.611-8.451 6.667-14.245 8.129v-42.219c0-5.478 4.456-9.934 9.934-9.934h112.646c4.141 0 7.498-3.357 7.498-7.498s-3.357-7.498-7.498-7.498h-112.647c-13.747 0-24.93 11.183-24.93 24.93v92.341c0 8.155-6.634 14.79-14.789 14.79s-14.789-6.635-14.789-14.79v-92.341c0-13.747-11.184-24.93-24.93-24.93h-38.781v-17.066h416.474v17.066h-150.449c-4.141 0-7.498 3.357-7.498 7.498s3.357 7.498 7.498 7.498zm-227.245 0c5.478 0 9.935 4.456 9.935 9.934v21.846c-.803-.037-1.62-.063-2.469-.063-13.034 0-20.909 5.097-26.313 9.538-3.81 3.13-8.729 3.749-13.163 1.654-4.375-2.067-6.987-6.201-6.987-11.057v-31.852zm374.13 129.238c-8.308 26.017-29.046 44.725-61.638 55.604-13.287 4.436-27.517 6.685-42.295 6.685h-201.48c-14.778 0-29.008-2.249-42.295-6.685-63.845-21.312-66.519-68.39-65.308-85.14h48.822v2.572c0 16.424 13.361 29.786 29.785 29.786s29.785-13.361 29.785-29.786v-2.572h308.256c.423 6.405.271 17.313-3.632 29.536zm36.331-77.193v6.606c0 14.367-11.689 26.056-26.056 26.056h-314.9v-17.248c10.995-1.754 17.607-6.968 23.556-11.68 6.394-5.065 11.445-9.065 22.325-9.065s15.93 4 22.323 9.065c6.922 5.483 15.536 12.307 31.635 12.307s24.353-6.538 31.635-12.307c6.394-5.065 11.444-9.065 22.324-9.065 10.881 0 15.931 4 22.325 9.065 7.282 5.768 15.536 12.307 31.636 12.307s24.354-6.538 31.636-12.307c6.394-5.065 11.444-9.065 22.324-9.065 8.207 0 12.924 2.947 16.799 6.133 8.278 6.803 19.425 8.194 29.089 3.627 9.608-4.54 15.577-13.973 15.577-24.617v-4.508c10.318 3.469 17.772 13.225 17.772 24.696zm-26.055-99.103h-429.898c-14.367 0-26.056-11.689-26.056-26.056v-6.606c0-14.367 11.689-26.056 26.056-26.056h429.897c14.367 0 26.056 11.689 26.056 26.056v6.606c0 14.367-11.688 26.056-26.055 26.056z"/></g></g><g transform="matrix(0.1171875 0 0 0.1171875 119 42)" id="L1_1"><path d="m22.507812 256c-8.632812 0-15.523437 7.273438-14.976562 15.890625 5.027344 79.683594 47.617188 149.167969 110.253906 190.964844 7.175782 4.785156 16.914063 2.425781 21.226563-5.039063l116.519531-201.816406zm0 0" fill="#f5685d"/><path d="m372.0625 457.839844-116.53125-201.839844-116.535156 201.839844c-4.304688 7.457031-1.496094 17.058594 6.214844 20.882812 33.238281 16.5 70.695312 25.777344 110.316406 25.777344 39.625 0 77.082031-9.277344 110.320312-25.777344 7.710938-3.824218 10.519532-13.425781 6.214844-20.882812zm0 0" fill="#f5685d"/><path d="m139.011719 54.183594c-4.3125-7.464844-14.050781-9.824219-21.226563-5.039063-62.636718 41.796875-105.226562 111.28125-110.253906 190.964844-.546875 8.617187 6.34375 15.890625 14.976562 15.890625h233.023438zm0 0" fill="#f5685d"/><path d="m365.847656 33.273438c-33.238281-16.496094-70.695312-25.773438-110.320312-25.773438-39.621094 0-77.078125 9.277344-110.316406 25.773438-7.710938 3.828124-10.519532 13.429687-6.214844 20.882812l116.535156 201.84375 116.53125-201.839844c4.304688-7.457031 1.496094-17.058594-6.214844-20.886718zm0 0" fill="#f5685d"/><path d="m503.53125 240.109375c-5.03125-79.683594-47.617188-149.167969-110.257812-190.964844-7.171876-4.785156-16.914063-2.425781-21.226563 5.039063l-116.515625 201.816406h101l-.003906 50.0625c0 10.234375 8.296875 18.53125 18.53125 18.53125h.476562c10.644532 0 19.195313-8.550781 19.195313-19.101562v-6.878907c0-6.574219 5.328125-11.898437 11.898437-11.898437 6.574219 0 11.902344 5.328125 11.902344 11.898437v53.457031c0 8.046876 6.523438 14.574219 14.570312 14.574219 8.046876 0 14.570313-6.527343 14.570313-14.574219v-96.070312h40.875c8.636719 0 15.527344-7.273438 14.984375-15.890625zm0 0" fill="#f5685d"/><path d="m48.242188 256c0 12.398438-2.890626 24.890625-.824219 36.695312 2.128906 12.140626 9.152343 22.894532 13.273437 34.21875 4.195313 11.527344 5.765625 24.265626 11.828125 34.746094 6.121094 10.574219 16.402344 18.28125 24.214844 27.582032 7.835937 9.328124 13.652344 20.78125 22.980469 28.617187 9.300781 7.8125 21.578125 11.566406 32.152344 17.6875l103.664062-179.546875zm0 0" fill="#ffe082"/><path d="m203.984375 256-90.105469 156.0625c11.4375 13.074219 24.0625 15.425781 37.988282 23.484375l103.664062-179.546875zm0 0" fill="#ffb300"/><path d="m151.867188 435.546875c10.441406 6.03125 19.839843 14.851563 31.378906 19.050781 11.324218 4.121094 24.136718 3.445313 36.277344 5.574219 11.804687 2.066406 23.609374 7.113281 36.007812 7.113281s24.199219-5.046875 36.003906-7.113281c12.140625-2.128906 24.953125-1.453125 36.277344-5.574219 11.527344-4.195312 20.894531-12.988281 31.371094-19.050781.003906 0 .003906 0 .007812-.003906l-103.660156-179.542969zm0 0" fill="#ffe082"/><path d="m255.53125 256-14.226562 24.640625 77.886718 134.90625c-.003906 0-.003906 0-.007812 0-10.476563 6.0625-19.84375 14.855469-31.371094 19.050781-11.324219 4.125-24.136719 3.445313-36.277344 5.574219-11.804687 2.066406-23.605468 7.113281-36.003906 7.113281s-24.203125-5.046875-36.007812-7.113281c-8.128907-1.425781-16.558594-1.597656-24.640626-2.789063 9.300782 5.890626 17.953126 13.425782 28.363282 17.214844 11.328125 4.125 24.136718 3.449219 36.277344 5.574219 11.808593 2.066406 23.609374 7.117187 36.007812 7.117187s24.199219-5.050781 36.003906-7.117187c12.144532-2.125 24.953125-1.449219 36.277344-5.574219 11.527344-4.195312 20.894531-12.984375 31.375-19.046875 0-.003906 0-.003906.003906-.003906zm0 0" fill="#ffb300"/><path d="m151.867188 76.453125c-10.574219 6.121094-22.851563 9.875-32.152344 17.6875-9.328125 7.835937-15.144532 19.289063-22.980469 28.621094-7.816406 9.300781-18.09375 17.003906-24.214844 27.582031-6.0625 10.476562-7.632812 23.21875-11.828125 34.742188-4.125 11.324218-11.144531 22.078124-13.273437 34.21875-2.066407 11.804687.824219 24.296874.824219 36.695312h207.289062zm0 0" fill="#ffe082"/><path d="m151.867188 76.453125c-7.066407 4.089844-14.894532 7.128906-22.085938 11.027344l68.425781 118.519531c7.699219 13.332031-1.921875 30-17.320312 30h-133.929688c.449219 6.613281 1.285157 13.320312 1.285157 20h207.289062zm0 0" fill="#ffb300"/><path d="m327.8125 57.402344c-11.324219-4.121094-24.136719-3.445313-36.277344-5.574219-11.804687-2.066406-23.609375-7.113281-36.007812-7.113281-12.398438 0-24.199219 5.046875-36.003906 7.113281-12.140626 2.128906-24.953126 1.453125-36.277344 5.574219-10.730469 3.90625-18.203125 10.945312-31.378906 19.050781l103.664062 179.546875 103.660156-179.546875c-10.441406-6.03125-19.839844-14.851563-31.378906-19.050781zm0 0" fill="#ffe082"/><path d="m327.8125 57.402344c-3.742188-1.363282-7.648438-2.195313-11.632812-2.78125.972656.617187 2.003906 1.25 3.011718 1.835937l-89.4375 154.902344 25.777344 44.640625 103.660156-179.546875c-10.441406-6.03125-19.839844-14.851563-31.378906-19.050781zm0 0" fill="#ffb300"/><path d="m447.671875 256h15.144531c0-12.398438 2.890625-24.890625.824219-36.695312-2.128906-12.140626-9.152344-22.894532-13.273437-34.21875-4.195313-11.527344-5.765626-24.265626-11.828126-34.746094-6.121093-10.574219-16.402343-18.28125-24.214843-27.582032-7.835938-9.328124-13.652344-20.78125-22.980469-28.617187-9.300781-7.8125-21.578125-11.566406-32.152344-17.6875l-103.660156 179.546875h101l-.003906 50.0625c0 10.234375 8.296875 18.53125 18.53125 18.53125h.476562c10.644532 0 19.195313-8.550781 19.195313-19.101562v-6.878907c0-6.574219 5.328125-11.898437 11.898437-11.898437 6.574219 0 11.898438 5.324218 11.898438 11.898437v53.457031c0 8.046876 6.527344 14.570313 14.574218 14.570313 8.046876 0 14.570313-6.523437 14.570313-14.570313zm0 0" fill="#ffe082"/><path d="m463.640625 219.304688c-2.128906-12.140626-9.152344-22.894532-13.273437-34.21875-4.195313-11.527344-5.765626-24.265626-11.828126-34.746094-6.121093-10.574219-16.402343-18.28125-24.214843-27.582032-7.835938-9.328124-13.652344-20.78125-22.980469-28.617187-9.300781-7.8125-21.578125-11.566406-32.152344-17.6875l-2.011718 3.484375c6.214843 7.105469 11.078124 15.597656 17.144531 22.820312 7.8125 9.300782 18.09375 17.007813 24.214843 27.582032 6.0625 10.480468 7.632813 23.21875 11.828126 34.746094 4.125 11.324218 11.144531 22.074218 13.273437 34.21875.019531.117187.039063.234374.058594.351562 3.175781 19.070312-11.839844 36.34375-31.171875 36.34375h-125.449219l-11.546875 20h152.140625v30.765625c6.082031.53125 10.859375 5.628906 10.859375 11.847656v53.457031c0 8.050782 6.523438 14.574219 14.570312 14.574219 8.046876 0 14.570313-6.527343 14.570313-14.574219v-96.070312h15.144531c0-12.398438 2.890625-24.890625.824219-36.695312zm0 0" fill="#ffb300"/><path d="m262.949219 400.128906c0 16.417969-13.3125 29.726563-29.730469 29.726563s-29.730469-13.308594-29.730469-29.726563c0-16.417968 13.3125-29.730468 29.730469-29.730468s29.730469 13.3125 29.730469 29.730468zm0 0" fill="#ef5350"/><path d="m170.257812 352.984375c0 16.417969-13.308593 29.730469-29.730468 29.730469-16.417969 0-29.726563-13.3125-29.726563-29.730469s13.308594-29.726563 29.726563-29.726563c16.421875 0 29.730468 13.308594 29.730468 29.726563zm0 0" fill="#ef5350"/><path d="m194.722656 199.855469c0 16.417969-13.3125 29.730469-29.730468 29.730469-16.417969 0-29.730469-13.3125-29.730469-29.730469s13.3125-29.730469 29.730469-29.730469c16.417968 0 29.730468 13.3125 29.730468 29.730469zm0 0" fill="#ef5350"/><path d="m257.140625 99.117188c0 16.417968-13.3125 29.730468-29.730469 29.730468-16.417968 0-29.726562-13.3125-29.726562-29.730468 0-16.417969 13.308594-29.730469 29.726562-29.730469 16.417969 0 29.730469 13.3125 29.730469 29.730469zm0 0" fill="#ef5350"/><g fill="#ffa000"><path d="m387.730469 135.914062c0 8.210938-6.65625 14.863282-14.863281 14.863282-8.210938 0-14.867188-6.652344-14.867188-14.863282 0-8.210937 6.65625-14.863281 14.867188-14.863281 8.207031 0 14.863281 6.652344 14.863281 14.863281zm0 0"/><path d="m339.894531 213.113281c0 8.210938-6.65625 14.867188-14.867187 14.867188-8.207032 0-14.863282-6.65625-14.863282-14.867188 0-8.210937 6.65625-14.863281 14.863282-14.863281 8.210937 0 14.867187 6.652344 14.867187 14.863281zm0 0"/><path d="m322.453125 91.320312c0 8.210938-6.65625 14.863282-14.863281 14.863282-8.210938 0-14.867188-6.652344-14.867188-14.863282 0-8.210937 6.65625-14.867187 14.867188-14.867187 8.207031 0 14.863281 6.65625 14.863281 14.867187zm0 0"/><path d="m270.394531 173.5625c0 8.210938-6.65625 14.867188-14.867187 14.867188-8.207032 0-14.863282-6.65625-14.863282-14.867188 0-8.207031 6.65625-14.863281 14.863282-14.863281 8.210937 0 14.867187 6.65625 14.867187 14.863281zm0 0"/><path d="m103.824219 219.113281c0 8.210938-6.65625 14.867188-14.863281 14.867188-8.210938 0-14.867188-6.65625-14.867188-14.867188 0-8.210937 6.65625-14.863281 14.867188-14.863281 8.207031 0 14.863281 6.652344 14.863281 14.863281zm0 0"/><path d="m189.195312 289.628906c0 8.207032-6.65625 14.863282-14.863281 14.863282-8.210937 0-14.867187-6.65625-14.867187-14.863282 0-8.210937 6.65625-14.867187 14.867187-14.867187 8.207031 0 14.863281 6.65625 14.863281 14.867187zm0 0"/><path d="m154.785156 124.675781c-2.300781-7.878906-10.558594-12.402343-18.4375-10.097656-7.878906 2.300781-12.398437 10.558594-10.097656 18.4375 2.304688 7.878906 10.558594 12.398437 18.4375 10.097656 7.878906-2.304687 12.402344-10.558593 10.097656-18.4375zm0 0"/><path d="m109.179688 300.59375c0 8.210938-6.65625 14.867188-14.867188 14.867188-8.207031 0-14.863281-6.65625-14.863281-14.867188s6.65625-14.863281 14.863281-14.863281c8.210938 0 14.867188 6.652343 14.867188 14.863281zm0 0"/><path d="m318.535156 414.992188c0 8.210937-6.652344 14.867187-14.863281 14.867187s-14.863281-6.65625-14.863281-14.867187c0-8.207032 6.652344-14.863282 14.863281-14.863282s14.863281 6.65625 14.863281 14.863282zm0 0"/><path d="m270.394531 330.324219c0 8.207031-6.65625 14.863281-14.867187 14.863281-8.207032 0-14.863282-6.65625-14.863282-14.863281 0-8.210938 6.65625-14.867188 14.863282-14.867188 8.210937 0 14.867187 6.65625 14.867187 14.867188zm0 0"/></g><path d="m427.859375 201.855469c0 16.417969-13.3125 29.730469-29.730469 29.730469-16.417968 0-29.726562-13.3125-29.726562-29.730469s13.308594-29.730469 29.726562-29.730469c16.417969 0 29.730469 13.3125 29.730469 29.730469zm0 0" fill="#ef5350"/><path d="m239.40625 371.046875c11.84375 21.980469-7.367188 48.457031-32.375 43.160156 5.019531 9.316407 14.863281 15.648438 26.1875 15.648438 16.421875 0 29.730469-13.308594 29.730469-29.726563 0-14.296875-10.09375-26.234375-23.542969-29.082031zm0 0" fill="#d32f2f"/><path d="m146.714844 323.90625c11.84375 21.976562-7.363282 48.453125-32.375 43.160156 5.023437 9.316406 14.863281 15.648438 26.191406 15.648438 16.417969 0 29.726562-13.3125 29.726562-29.730469 0-14.296875-10.09375-26.230469-23.542968-29.078125zm0 0" fill="#d32f2f"/><path d="m171.179688 170.773438c11.839843 21.980468-7.367188 48.457031-32.375 43.160156 5.019531 9.316406 14.863281 15.652344 26.1875 15.652344 16.417968 0 29.730468-13.3125 29.730468-29.730469 0-14.296875-10.09375-26.234375-23.542968-29.082031zm0 0" fill="#d32f2f"/><path d="m233.597656 70.035156c11.839844 21.980469-7.363281 48.457032-32.375 43.160156 5.019532 9.316407 14.863282 15.652344 26.1875 15.652344 16.417969 0 29.730469-13.3125 29.730469-29.730468 0-14.296876-10.09375-26.230469-23.542969-29.082032zm0 0" fill="#d32f2f"/><path d="m404.316406 172.777344c11.84375 21.976562-7.363281 48.457031-32.375 43.160156 5.019532 9.316406 14.863282 15.648438 26.1875 15.648438 16.421875 0 29.730469-13.3125 29.730469-29.730469 0-14.296875-10.09375-26.234375-23.542969-29.078125zm0 0" fill="#d32f2f"/><path d="m270.449219 400.128906c0-20.527344-16.703125-37.230468-37.230469-37.230468-20.53125 0-37.230469 16.703124-37.230469 37.230468s16.703125 37.226563 37.230469 37.226563 37.230469-16.699219 37.230469-37.226563zm-59.460938 0c0-12.257812 9.972657-22.230468 22.230469-22.230468s22.230469 9.972656 22.230469 22.230468c0 12.257813-9.972657 22.226563-22.230469 22.226563s-22.230469-9.96875-22.230469-22.226563zm0 0"/><path d="m140.527344 315.757812c-20.527344 0-37.226563 16.699219-37.226563 37.226563s16.699219 37.230469 37.226563 37.230469c20.53125 0 37.230468-16.703125 37.230468-37.230469s-16.699218-37.226563-37.230468-37.226563zm0 59.457032c-12.253906 0-22.226563-9.972656-22.226563-22.230469s9.972657-22.226563 22.226563-22.226563c12.257812 0 22.230468 9.96875 22.230468 22.226563s-9.972656 22.230469-22.230468 22.230469zm0 0"/><path d="m164.992188 162.625c-20.53125 0-37.230469 16.703125-37.230469 37.230469 0 20.527343 16.699219 37.230469 37.230469 37.230469 20.527343 0 37.226562-16.703126 37.226562-37.230469 0-20.527344-16.699219-37.230469-37.226562-37.230469zm0 59.460938c-12.257813 0-22.230469-9.972657-22.230469-22.230469 0-12.257813 9.972656-22.230469 22.230469-22.230469 12.253906 0 22.226562 9.972656 22.226562 22.230469 0 12.257812-9.96875 22.230469-22.226562 22.230469zm0 0"/><path d="m264.640625 99.117188c0-20.527344-16.703125-37.230469-37.230469-37.230469s-37.226562 16.703125-37.226562 37.230469c0 20.527343 16.699218 37.230468 37.226562 37.230468s37.230469-16.703125 37.230469-37.230468zm-59.460937 0c0-12.257813 9.972656-22.230469 22.230468-22.230469 12.257813 0 22.230469 9.972656 22.230469 22.230469 0 12.257812-9.972656 22.230468-22.230469 22.230468-12.257812 0-22.230468-9.972656-22.230468-22.230468zm0 0"/><path d="m395.230469 135.914062c0-12.332031-10.03125-22.363281-22.363281-22.363281-12.332032 0-22.367188 10.03125-22.367188 22.363281 0 12.332032 10.035156 22.363282 22.367188 22.363282 12.332031 0 22.363281-10.03125 22.363281-22.363282zm-29.730469 0c0-4.0625 3.304688-7.363281 7.367188-7.363281s7.363281 3.300781 7.363281 7.363281-3.300781 7.363282-7.363281 7.363282-7.367188-3.300782-7.367188-7.363282zm0 0"/><path d="m325.027344 190.75c-12.332032 0-22.363282 10.03125-22.363282 22.363281s10.03125 22.367188 22.363282 22.367188c12.332031 0 22.367187-10.035157 22.367187-22.367188s-10.035156-22.363281-22.367187-22.363281zm0 29.730469c-4.058594 0-7.363282-3.304688-7.363282-7.367188 0-4.058593 3.304688-7.363281 7.363282-7.363281 4.0625 0 7.367187 3.304688 7.367187 7.363281 0 4.0625-3.304687 7.367188-7.367187 7.367188zm0 0"/><path d="m307.589844 113.683594c12.332031 0 22.363281-10.03125 22.363281-22.363282 0-12.332031-10.03125-22.367187-22.363281-22.367187-12.332032 0-22.363282 10.035156-22.363282 22.367187 0 12.332032 10.03125 22.363282 22.363282 22.363282zm0-29.730469c4.058594 0 7.363281 3.304687 7.363281 7.367187s-3.304687 7.363282-7.363281 7.363282c-4.0625 0-7.363282-3.304688-7.363282-7.363282 0-4.0625 3.300782-7.367187 7.363282-7.367187zm0 0"/><path d="m233.164062 173.5625c0 12.332031 10.035157 22.367188 22.367188 22.367188s22.363281-10.035157 22.363281-22.367188-10.03125-22.363281-22.363281-22.363281c-12.335938 0-22.367188 10.03125-22.367188 22.363281zm29.730469 0c0 4.0625-3.304687 7.367188-7.367187 7.367188-4.058594 0-7.363282-3.304688-7.363282-7.367188 0-4.058594 3.304688-7.363281 7.363282-7.363281 4.0625 0 7.367187 3.304687 7.367187 7.363281zm0 0"/><path d="m88.960938 196.75c-12.332032 0-22.363282 10.03125-22.363282 22.363281s10.03125 22.367188 22.363282 22.367188c12.332031 0 22.363281-10.035157 22.363281-22.367188s-10.03125-22.363281-22.363281-22.363281zm0 29.730469c-4.0625 0-7.363282-3.304688-7.363282-7.367188 0-4.058593 3.300782-7.363281 7.363282-7.363281 4.058593 0 7.363281 3.304688 7.363281 7.363281 0 4.0625-3.304688 7.367188-7.363281 7.367188zm0 0"/><path d="m174.332031 311.992188c12.332031 0 22.363281-10.03125 22.363281-22.363282 0-12.332031-10.035156-22.367187-22.363281-22.367187-12.332031 0-22.367187 10.035156-22.367187 22.367187 0 12.332032 10.035156 22.363282 22.367187 22.363282zm0-29.730469c4.058594 0 7.363281 3.304687 7.363281 7.367187 0 4.058594-3.304687 7.363282-7.363281 7.363282-4.0625 0-7.367187-3.304688-7.367187-7.363282 0-4.0625 3.304687-7.367187 7.367187-7.367187zm0 0"/><path d="m140.5 151.222656c2.105469 0 4.226562-.300781 6.304688-.910156 11.835937-3.460938 18.652343-15.902344 15.191406-27.742188-1.675782-5.730468-5.484375-10.472656-10.722656-13.339843-5.242188-2.871094-11.285157-3.527344-17.019532-1.851563-11.835937 3.460938-18.652344 15.902344-15.191406 27.738282 1.675781 5.734374 5.484375 10.476562 10.722656 13.34375 3.339844 1.828124 7.007813 2.761718 10.714844 2.761718zm-2.035156-29.445312c.683594-.199219 1.382812-.300782 2.074218-.300782 1.222657 0 2.429688.308594 3.527344.910157 1.726563.945312 2.980469 2.503906 3.53125 4.394531 1.140625 3.898438-1.105468 7.996094-5 9.132812-1.890625.550782-3.878906.335938-5.605468-.609374-1.722657-.945313-2.976563-2.503907-3.53125-4.394532-1.140626-3.894531 1.105468-7.992187 5.003906-9.132812zm0 0"/><path d="m116.679688 300.59375c0-12.332031-10.035157-22.363281-22.367188-22.363281s-22.363281 10.03125-22.363281 22.363281 10.03125 22.367188 22.363281 22.367188c12.332031-.003907 22.367188-10.035157 22.367188-22.367188zm-22.367188 7.363281c-4.058594 0-7.363281-3.304687-7.363281-7.363281 0-4.0625 3.304687-7.367188 7.363281-7.367188 4.0625 0 7.367188 3.304688 7.367188 7.367188 0 4.058594-3.304688 7.363281-7.367188 7.363281zm0 0"/><path d="m303.671875 437.355469c12.332031 0 22.363281-10.03125 22.363281-22.363281 0-12.332032-10.03125-22.363282-22.363281-22.363282s-22.363281 10.03125-22.363281 22.363282c0 12.332031 10.03125 22.363281 22.363281 22.363281zm0-29.726563c4.0625 0 7.363281 3.304688 7.363281 7.363282 0 4.0625-3.300781 7.363281-7.363281 7.363281-4.058594 0-7.363281-3.300781-7.363281-7.363281 0-4.058594 3.304687-7.363282 7.363281-7.363282zm0 0"/><path d="m255.527344 352.6875c12.332031 0 22.367187-10.03125 22.367187-22.363281s-10.035156-22.363281-22.367187-22.363281c-12.332032 0-22.363282 10.03125-22.363282 22.363281s10.03125 22.363281 22.363282 22.363281zm0-29.730469c4.0625 0 7.367187 3.304688 7.367187 7.367188 0 4.058593-3.304687 7.363281-7.367187 7.363281-4.058594 0-7.363282-3.304688-7.363282-7.363281 0-4.0625 3.304688-7.367188 7.363282-7.367188zm0 0"/><path d="m398.128906 164.625c-20.527344 0-37.226562 16.703125-37.226562 37.230469 0 20.527343 16.699218 37.230469 37.226562 37.230469s37.230469-16.703126 37.230469-37.230469c0-20.527344-16.703125-37.230469-37.230469-37.230469zm0 59.460938c-12.257812 0-22.226562-9.972657-22.226562-22.230469 0-12.257813 9.96875-22.230469 22.226562-22.230469 12.257813 0 22.230469 9.972656 22.230469 22.230469 0 12.257812-9.972656 22.230469-22.230469 22.230469zm0 0"/><path d="m511.015625 239.636719c-5.050781-79.984375-47.402344-152.574219-113.582031-196.730469-4.96875-3.3125-11.128906-4.484375-16.984375-3.257812-1.851563-5.679688-5.925781-10.441407-11.269531-13.089844-35.503907-17.625-73.742188-26.558594-113.652344-26.558594-39.90625 0-78.144532 8.933594-113.652344 26.558594-5.339844 2.652344-9.414062 7.410156-11.265625 13.089844-5.855469-1.226563-12.019531-.054688-16.988281 3.257812-66.117188 44.117188-108.523438 116.679688-113.5781252 196.730469-.3749998 5.972656 1.6992192 11.902343 5.6914062 16.363281-3.996094 4.460938-6.066406 10.390625-5.6914062 16.363281 5.0507812 79.984375 47.4023432 152.574219 113.5820312 196.730469 4.789062 3.195312 10.890625 4.535156 16.984375 3.257812 1.851563 5.679688 5.925781 10.441407 11.269531 13.09375 35.503906 17.621094 73.742188 26.554688 113.648438 26.554688 39.910156 0 78.148437-8.933594 113.652344-26.558594 11.574218-5.742187 15.839843-20.160156 9.378906-31.351562l-110.039063-190.589844h80.507813v42.5625c0 13.800781 10.878906 26.03125 26.507812 26.03125 14.71875 0 26.695313-11.933594 26.695313-26.601562v-6.878907c0-2.425781 1.972656-4.398437 4.398437-4.398437 2.425782 0 4.398438 1.972656 4.398438 4.398437v53.457031c0 12.171876 9.902344 22.070313 22.074218 22.070313 12.167969 0 22.070313-9.898437 22.070313-22.070313v-88.570312h33.375c12.960937 0 23.28125-10.953125 22.46875-23.863281zm-386.476563 172.480469c-8.359374-7.023438-14.003906-18.105469-22.0625-27.699219-8.046874-9.578125-17.976562-17.03125-23.464843-26.515625-5.429688-9.378906-6.964844-21.714844-11.273438-33.554688-4.25-11.671875-11.023437-22.042968-12.929687-32.945312-1.480469-8.441406.003906-17.851563.660156-27.902344h187.070312l-93.554687 162.035156c-9-4.4375-17.808594-7.84375-24.445313-13.417968zm-69.730468-191.519532c1.90625-10.902344 8.679687-21.273437 12.929687-32.945312 4.3125-11.851563 5.84375-24.171875 11.273438-33.554688 5.484375-9.484375 15.421875-16.941406 23.464843-26.515625 8.066407-9.609375 13.699219-20.671875 22.0625-27.699219 6.636719-5.574218 15.449219-8.984374 24.449219-13.421874l39.464844 68.359374c2.070313 3.585938 6.660156 4.816407 10.246094 2.746094 3.585937-2.070312 4.816406-6.660156 2.746093-10.246094l-39.476562-68.375c8.289062-5.570312 15.613281-11.5 23.84375-14.496093 10.128906-3.6875 22.539062-3.050781 35.003906-5.230469 12.1875-2.136719 23.5625-7.003906 34.710938-7.003906 11.152344 0 22.527344 4.867187 34.714844 7.003906 12.464843 2.179688 24.878906 1.542969 35.003906 5.230469 8.226562 2.996093 15.546875 8.921875 23.84375 14.496093l-93.5625 162.054688-36.582032-63.367188c-2.074218-3.585937-6.660156-4.816406-10.246093-2.746093-3.585938 2.074219-4.816407 6.660156-2.746094 10.246093l36.585937 63.367188h-187.066406c-.660156-10.050781-2.144531-19.460938-.664062-27.902344zm93.738281-180.605468c33.414063-16.582032 69.410156-24.992188 106.980469-24.992188 37.574218 0 73.570312 8.410156 106.984375 24.992188 3.8125 1.890624 5.214843 6.679687 3.054687 10.417968l-8.957031 15.511719c-8.257813-5.621094-16.265625-11.9375-26.234375-15.566406-12.492188-4.546875-25.765625-3.847657-37.546875-5.914063-11.421875-1.996094-23.644531-7.226562-37.300781-7.226562-13.652344 0-25.878906 5.230468-37.296875 7.226562-11.777344 2.066406-25.054688 1.363282-37.550781 5.914063-9.964844 3.628906-17.953126 9.929687-26.230469 15.566406-.066407-.113281-8.953125-15.503906-8.953125-15.503906-.003906-.003907-.003906-.007813-.003906-.007813-2.15625-3.734375-.761719-8.523437 3.054687-10.417968zm-133.53125 200.585937c4.695313-74.421875 44.671875-143.652344 106.933594-185.195313 3.542969-2.363281 8.402343-1.199218 10.566406 2.550782l8.953125 15.507812c-9.015625 4.378906-18.507812 8.179688-26.578125 14.957032-10.285156 8.640624-16.304687 20.496093-23.902344 29.539062-7.574219 9.015625-18.214843 16.988281-24.960937 28.648438-6.6875 11.558593-8.3125 24.746093-12.382813 35.933593-3.996093 10.976563-11.269531 22.109375-13.613281 35.492188-1.800781 10.285156-.316406 20.429687.402344 30.488281h-17.925782c-4.328124 0-7.765624-3.632812-7.492187-7.921875zm106.933594 216.035156c-62.261719-41.539062-102.238281-110.769531-106.933594-185.195312-.273437-4.285157 3.164063-7.917969 7.496094-7.917969h17.921875c-.71875 10.074219-2.203125 20.203125-.402344 30.488281 2.34375 13.382813 9.617188 24.519531 13.613281 35.492188 4.070313 11.183593 5.699219 24.375 12.382813 35.933593 6.746094 11.65625 17.390625 19.632813 24.964844 28.652344 7.597656 9.042969 13.617187 20.898438 23.902343 29.535156 8.0625 6.777344 17.550781 10.574219 26.574219 14.957032l-8.953125 15.503906c-2.152344 3.734375-7.003906 4.929688-10.566406 2.550781zm240.5625 15.394531c-33.414063 16.582032-69.410157 24.992188-106.984375 24.992188-37.574219 0-73.566406-8.410156-106.980469-24.992188-3.8125-1.894531-5.214844-6.679687-3.054687-10.417968l8.957031-15.511719c8.261719 5.625 16.265625 11.9375 26.230469 15.566406 3.886718 1.417969 8.195312-.585937 9.613281-4.484375 1.417969-3.890625-.589844-8.195312-4.480469-9.609375-8.226562-2.996093-15.550781-8.921875-23.84375-14.5l93.558594-162.050781 93.5625 162.050781c-8.296875 5.578125-15.617188 11.503907-23.84375 14.5-10.128906 3.6875-22.539063 3.046875-35.003906 5.230469-12.1875 2.132812-23.5625 7.003906-34.714844 7.003906-11.890625 0-23.566406-5.433594-37.550782-7.457031-4.101562-.589844-7.902343 2.253906-8.496093 6.351563-.589844 4.101562 2.253906 7.90625 6.351562 8.496093 12.925781 1.867188 25.25 7.609375 39.695313 7.609375 13.65625 0 25.875-5.226562 37.300781-7.226562 11.773437-2.0625 25.050781-1.363282 37.550781-5.914063 9.960938-3.625 17.957032-9.929687 26.230469-15.566406l8.957031 15.511719c2.15625 3.734375.761719 8.523437-3.054687 10.417968zm85.160156-223.507812c-4.140625 0-7.5 3.359375-7.5 7.5v96.070312c0 3.898438-3.171875 7.070313-7.070313 7.070313-3.898437 0-7.070312-3.171875-7.070312-7.070313v-53.457031c0-10.699219-8.703125-19.398437-19.402344-19.398437-10.695312 0-19.398437 8.699218-19.398437 19.398437v6.878907c0 5.980468-4.664063 11.601562-12.171875 11.601562-6.097656 0-11.03125-4.933594-11.03125-11.03125l.003906-42.5625h56.714844c4.140625 0 7.5-3.359375 7.5-7.5s-3.359375-7.5-7.5-7.5h-152.226563l93.550781-162.035156c8.988282 4.429687 17.808594 7.839844 24.449219 13.417968 8.363281 7.023438 14 18.101563 22.0625 27.699219 8.046875 9.578125 17.976563 17.027344 23.464844 26.515625 5.429687 9.378906 6.960937 21.714844 11.273437 33.554688 4.25 11.671875 11.019532 22.042968 12.929688 32.945312 1.480469 8.441406-.003906 17.851563-.664062 27.902344zm40.875 0h-17.921875c.71875-10.074219 2.203125-20.203125.402344-30.488281-2.34375-13.382813-9.617188-24.519531-13.613282-35.492188-4.066406-11.179687-5.699218-24.378906-12.382812-35.933593-6.746094-11.660157-17.394531-19.640626-24.964844-28.652344-7.589844-9.039063-13.617187-20.898438-23.898437-29.535156-8.066407-6.773438-17.546875-10.570313-26.578125-14.957032l8.953125-15.507812c2.164062-3.75 7.027343-4.914063 10.566406-2.550782 62.261719 41.542969 102.238281 110.773438 106.933594 185.195313.273437 4.296875-3.171875 7.921875-7.496094 7.921875zm0 0"/></g><g transform="matrix(0.1171875 0 0 0.1171875 293 127)" id="L1_2"><path d="m80 168h-16c-17.673 0-32 14.327-32 32v48h80v-48c0-17.673-14.327-32-32-32z" fill="#be5000"/><path d="m80 184h-16c-8.837 0-16 7.163-16 16v48h48v-48c0-8.837-7.163-16-16-16z" fill="#dc6e1e"/><path d="m136 200h32c4.418 0 8 3.582 8 8v40h-48v-40c0-4.418 3.582-8 8-8z" fill="#4b8c41"/><path d="m168 184h32c4.418 0 8 3.582 8 8v56h-48v-56c0-4.418 3.582-8 8-8z" fill="#91b945"/><circle cx="432" cy="248" r="48" fill="#d7e6e6"/><path d="m140 248c0-5.178 6.985-11.4 5.467-16.073-1.572-4.842-10.932-5.758-13.866-9.789-2.963-4.071-.962-13.246-5.033-16.209-4.031-2.933-12.125 1.784-16.967.212-4.672-1.517-8.423-10.141-13.601-10.141s-8.929 8.624-13.602 10.142c-4.842 1.572-12.936-3.145-16.967-.212-4.071 2.963-2.07 12.138-5.033 16.209-2.933 4.031-12.293 4.946-13.865 9.789-1.518 4.672 5.467 10.894 5.467 16.072s-6.985 11.4-5.467 16.073c1.572 4.842 10.932 5.758 13.866 9.789 2.963 4.071.962 13.246 5.033 16.209 4.031 2.933 12.125-1.784 16.967-.212 4.672 1.517 8.423 10.141 13.601 10.141s8.929-8.624 13.602-10.142c4.842-1.572 12.936 3.145 16.967.212 4.071-2.963 2.07-12.138 5.033-16.209 2.933-4.031 12.293-4.946 13.865-9.789 1.518-4.672-5.467-10.894-5.467-16.072z" fill="#d7e6e6"/><path d="m96 284c-19.851 0-36-16.149-36-36s16.149-36 36-36 36 16.149 36 36-16.149 36-36 36zm0-64c-15.439 0-28 12.561-28 28s12.561 28 28 28 28-12.561 28-28-12.561-28-28-28z" fill="#ff8773"/><path d="m96 265.333c-9.558 0-17.333-7.775-17.333-17.333s7.775-17.333 17.333-17.333 17.333 7.775 17.333 17.333-7.775 17.333-17.333 17.333zm0-26.666c-5.146 0-9.333 4.187-9.333 9.333s4.187 9.333 9.333 9.333 9.333-4.187 9.333-9.333-4.187-9.333-9.333-9.333z" fill="#ff8773"/><circle cx="432" cy="248" r="24" fill="#fabe19"/><circle cx="360" cy="248" r="48" fill="#d7e6e6"/><circle cx="360" cy="248" r="24" fill="#fabe19"/><path d="m168 56h328v-16h-328c-4.418 0-8 3.582-8 8 0 4.418 3.582 8 8 8z" fill="#d7322d"/><path d="m168 88h328v-16h-328c-4.418 0-8 3.582-8 8 0 4.418 3.582 8 8 8z" fill="#d7322d"/><path d="m160 48h336v-8h-328c-4.418 0-8 3.582-8 8z" fill="#f04b37"/><path d="m160 80h336v-8h-328c-4.418 0-8 3.582-8 8z" fill="#f04b37"/><g><path d="m208 260c-6.627 0-12-5.373-12-12 0-13.688 6.326-20.963 10.944-26.275 3.471-3.992 5.056-5.814 5.056-10.527s-1.584-6.535-5.056-10.527c-4.618-5.314-10.944-12.588-10.944-26.276s6.326-20.962 10.945-26.273c3.471-3.991 5.055-5.813 5.055-10.524 0-4.712-1.584-6.533-5.055-10.525-4.619-5.313-10.945-12.588-10.945-26.276s6.326-20.962 10.945-26.273c3.471-3.991 5.055-5.813 5.055-10.524 0-6.627 5.373-12 12-12s12 5.373 12 12c0 13.688-6.326 20.962-10.945 26.272-3.471 3.991-5.055 5.813-5.055 10.524 0 4.713 1.584 6.534 5.056 10.526 4.619 5.312 10.944 12.586 10.944 26.273s-6.326 20.961-10.945 26.272c-3.471 3.992-5.055 5.813-5.055 10.525 0 4.713 1.584 6.535 5.056 10.527 4.619 5.313 10.944 12.587 10.944 26.275s-6.326 20.963-10.944 26.275c-3.472 3.996-5.056 5.818-5.056 10.531 0 6.627-5.373 12-12 12z" fill="#f5871e"/><path d="m184 260c-6.627 0-12-5.373-12-12 0-13.688 6.326-20.963 10.944-26.275 3.471-3.992 5.056-5.814 5.056-10.527s-1.584-6.535-5.056-10.527c-4.618-5.314-10.944-12.588-10.944-26.276s6.326-20.962 10.945-26.273c3.471-3.991 5.055-5.813 5.055-10.524 0-4.712-1.584-6.533-5.055-10.525-4.619-5.313-10.945-12.588-10.945-26.276s6.326-20.962 10.945-26.273c3.471-3.991 5.055-5.813 5.055-10.524 0-6.627 5.373-12 12-12s12 5.373 12 12c0 13.688-6.326 20.962-10.945 26.272-3.471 3.991-5.055 5.813-5.055 10.524 0 4.713 1.584 6.534 5.056 10.526 4.619 5.312 10.944 12.586 10.944 26.273s-6.326 20.961-10.945 26.272c-3.471 3.992-5.055 5.813-5.055 10.525 0 4.713 1.584 6.535 5.056 10.527 4.619 5.313 10.944 12.587 10.944 26.275s-6.326 20.963-10.944 26.275c-3.472 3.996-5.056 5.818-5.056 10.531 0 6.627-5.373 12-12 12z" fill="#fabe19"/><path d="m256 260c-6.627 0-12-5.373-12-12 0-13.688 6.326-20.963 10.944-26.275 3.472-3.992 5.056-5.814 5.056-10.527s-1.584-6.535-5.056-10.527c-4.618-5.314-10.944-12.588-10.944-26.276s6.326-20.962 10.945-26.273c3.471-3.991 5.055-5.813 5.055-10.524 0-4.712-1.584-6.533-5.055-10.525-4.619-5.313-10.945-12.588-10.945-26.276s6.326-20.962 10.945-26.273c3.471-3.991 5.055-5.813 5.055-10.524 0-6.627 5.373-12 12-12s12 5.373 12 12c0 13.688-6.326 20.962-10.945 26.272-3.471 3.991-5.055 5.813-5.055 10.524 0 4.713 1.584 6.534 5.056 10.526 4.618 5.312 10.944 12.586 10.944 26.273s-6.326 20.961-10.944 26.272c-3.472 3.992-5.056 5.813-5.056 10.525 0 4.713 1.584 6.535 5.056 10.527 4.619 5.313 10.944 12.587 10.944 26.275s-6.325 20.963-10.944 26.275c-3.472 3.996-5.056 5.818-5.056 10.531 0 6.627-5.373 12-12 12z" fill="#f5871e"/><path d="m232 260c-6.627 0-12-5.373-12-12 0-13.688 6.326-20.963 10.944-26.275 3.471-3.992 5.056-5.814 5.056-10.527s-1.584-6.535-5.056-10.527c-4.618-5.314-10.944-12.588-10.944-26.276s6.326-20.962 10.945-26.273c3.471-3.991 5.055-5.813 5.055-10.524 0-4.712-1.584-6.533-5.055-10.525-4.619-5.313-10.945-12.588-10.945-26.276s6.326-20.962 10.945-26.273c3.471-3.991 5.055-5.813 5.055-10.524 0-6.627 5.373-12 12-12s12 5.373 12 12c0 13.688-6.326 20.962-10.945 26.272-3.471 3.991-5.055 5.813-5.055 10.524 0 4.713 1.584 6.534 5.056 10.526 4.619 5.312 10.944 12.586 10.944 26.273s-6.326 20.961-10.945 26.272c-3.471 3.992-5.055 5.813-5.055 10.525 0 4.713 1.584 6.535 5.056 10.527 4.619 5.313 10.944 12.587 10.944 26.275s-6.326 20.963-10.944 26.275c-3.472 3.996-5.056 5.818-5.056 10.531 0 6.627-5.373 12-12 12z" fill="#fabe19"/><path d="m304 260c-6.627 0-12-5.373-12-12 0-13.688 6.325-20.963 10.944-26.275 3.472-3.992 5.056-5.814 5.056-10.527s-1.584-6.535-5.056-10.527c-4.619-5.314-10.944-12.588-10.944-26.276s6.326-20.962 10.945-26.273c3.471-3.991 5.055-5.813 5.055-10.524 0-4.712-1.584-6.533-5.055-10.525-4.619-5.313-10.945-12.588-10.945-26.276s6.326-20.962 10.945-26.273c3.471-3.991 5.055-5.813 5.055-10.524 0-6.627 5.373-12 12-12s12 5.373 12 12c0 13.688-6.326 20.962-10.945 26.272-3.471 3.991-5.055 5.813-5.055 10.524 0 4.713 1.584 6.534 5.056 10.526 4.618 5.312 10.944 12.586 10.944 26.273s-6.326 20.961-10.944 26.272c-3.472 3.992-5.056 5.813-5.056 10.525 0 4.713 1.584 6.535 5.056 10.527 4.619 5.313 10.944 12.587 10.944 26.275s-6.325 20.963-10.944 26.275c-3.472 3.996-5.056 5.818-5.056 10.531 0 6.627-5.373 12-12 12z" fill="#f5871e"/><path d="m280 260c-6.627 0-12-5.373-12-12 0-13.688 6.325-20.963 10.944-26.275 3.472-3.992 5.056-5.814 5.056-10.527s-1.584-6.535-5.056-10.527c-4.619-5.314-10.944-12.588-10.944-26.276s6.326-20.962 10.945-26.273c3.471-3.991 5.055-5.813 5.055-10.524 0-4.712-1.584-6.533-5.055-10.525-4.619-5.313-10.945-12.588-10.945-26.276s6.326-20.962 10.945-26.273c3.471-3.991 5.055-5.813 5.055-10.524 0-6.627 5.373-12 12-12s12 5.373 12 12c0 13.688-6.326 20.962-10.945 26.272-3.471 3.991-5.055 5.813-5.055 10.524 0 4.713 1.584 6.534 5.056 10.526 4.618 5.312 10.944 12.586 10.944 26.273s-6.326 20.961-10.944 26.272c-3.472 3.992-5.056 5.813-5.056 10.525 0 4.713 1.584 6.535 5.056 10.527 4.619 5.313 10.944 12.587 10.944 26.275s-6.325 20.963-10.944 26.275c-3.472 3.996-5.056 5.818-5.056 10.531 0 6.627-5.373 12-12 12z" fill="#fabe19"/></g><path d="m336 440h-160c-88.366 0-160-71.634-160-160v-16c0-8.837 7.163-16 16-16h448c8.837 0 16 7.163 16 16v16c0 88.366-71.634 160-160 160z" fill="#f04b37"/><path d="m176 424c-79.402 0-144-64.598-144-144v-8c0-4.418 3.582-8 8-8s8 3.582 8 8v8c0 70.579 57.42 128 128 128 4.418 0 8 3.582 8 8s-3.582 8-8 8z" fill="#ff6955"/><path d="m480 248h-160c8.837 0 16 7.163 16 16v16c0 88.365-71.635 160-160 160h160c88.365 0 160-71.635 160-160v-16c0-8.837-7.163-16-16-16z" fill="#d7322d"/><path d="m320 472h-128c-8.837 0-16-7.163-16-16v-16h160v16c0 8.837-7.163 16-16 16z" fill="#d7322d"/></g><g transform="matrix(0.11764521151781082 0 0 0.11764521151781082 122 219)" id="L1_3"><path d="m131.476 16.301c-43.82 0-79.469 35.649-79.469 79.468s35.649 79.469 79.469 79.469c2.279 0 4.583-.098 6.85-.292l4.9-.418 67.719-73.849v-4.909c-.001-43.82-35.65-79.469-79.469-79.469z" id="XMLID_4469_" fill="#ffdd33"/><path d="m131.476 190.25c-52.098 0-94.481-42.384-94.481-94.481s42.383-94.481 94.481-94.481 94.481 42.384 94.481 94.481h-30c0-35.555-28.927-64.481-64.481-64.481s-64.482 28.926-64.482 64.481 28.927 64.481 64.481 64.481c1.86 0 3.741-.08 5.589-.238l2.555 29.891c-2.694.231-5.433.347-8.143.347z" id="XMLID_4409_" fill="#ffbb33"/><path d="m121.119 89.72 35.664 411.336h204.384l35.664-411.336z" id="XMLID_35_" fill="#cff3fc"/><path d="m258.975 89.72v411.336h102.192l35.664-411.336z" id="XMLID_167_" fill="#99eeff"/><path d="m326.476 192.372-29.7-4.243 28.228-188.129h148.01v30h-121.991z" id="XMLID_37_" fill="#ff6a4d"/><path d="m358.347 178.64c-.255.132-26.518 13.081-66.473 6.092l-49.189-6.363-.258-.031c-62.675-6.823-91.683 3.964-92.887 4.427l-9.165 3.521 25.996 299.827h185.453l27.614-318.495z" id="XMLID_42_" fill="#a8e62e"/><path d="m358.347 178.64c-.255.132-26.518 13.081-66.473 6.092l-32.899-4.256v305.636h92.848l27.614-318.495z" id="XMLID_112_" fill="#7acc29"/><path d="m365.615 510.008h-213.28l-37.216-429.239h287.712zm-185.768-30h158.257l32.015-369.239h-222.287z" id="XMLID_4504_" fill="#99eeff"/><path d="m217.55 147.21h95.899v95.899h-95.899z" transform="matrix(0.9200000166893005 -0.39100000262260437 0.39100000262260437 0.9200000166893005 -55.1609992980957 119.30500030517578)" id="XMLID_4451_" fill="#e6fbff"/><path d="m213.315 303.9h95.899v95.899h-95.899z" transform="matrix(0.5289999842643738 -0.8479999899864197 0.8479999899864197 0.5289999842643738 -175.5469970703125 387.239013671875)" id="XMLID_43_" fill="#e6fbff"/><path d="m320.321 291.538c7.846 0 15.363-6.899 15-15-.364-8.127-6.591-15-15-15-7.846 0-15.363 6.899-15 15 .364 8.127 6.591 15 15 15z" id="XMLID_51_" fill="#3bb324"/><path d="m195.706 275.384c7.846 0 15.363-6.899 15-15-.364-8.127-6.591-15-15-15-7.846 0-15.363 6.899-15 15 .364 8.127 6.591 15 15 15z" id="XMLID_64_" fill="#7acc29"/><path d="m226.091 458.076c7.846 0 15.363-6.899 15-15-.364-8.127-6.591-15-15-15-7.846 0-15.363 6.899-15 15 .364 8.127 6.591 15 15 15z" id="XMLID_68_" fill="#7acc29"/><path d="m258.975 80.769v30h111.143l-32.014 369.239h-79.129v30h106.64l37.216-429.239z" id="XMLID_70_" fill="#66e6ff"/><g fill="#cff3fc"><path d="m258.975 250.024 69.402-29.473-37.484-88.269-31.918 13.554z" id="XMLID_4539_"/><path d="m258.975 293.902v113.038l17.584 10.972 50.769-81.358z" id="XMLID_4541_"/></g></g></defs><g fi:class="KUsePattern" opacity="0.1"><pattern id="pattern_L1_0" width="350" height="350" patternUnits="userSpaceOnUse"><use xlink:href="#L1_0" x="-350" y="-350"/><use xlink:href="#L1_0" x="0" y="-350"/><use xlink:href="#L1_0" x="350" y="-350"/><use xlink:href="#L1_0" x="-350" y="0"/><use xlink:href="#L1_0" x="0" y="0"/><use xlink:href="#L1_0" x="350" y="0"/><use xlink:href="#L1_0" x="-350" y="350"/><use xlink:href="#L1_0" x="0" y="350"/><use xlink:href="#L1_0" x="350" y="350"/></pattern><rect x="0" y="0" width="100%" height="100%" fill="url(#pattern_L1_0)"/></g><g fi:class="KUsePattern" opacity="0.1"><pattern id="pattern_L1_1" width="350" height="350" patternUnits="userSpaceOnUse"><use xlink:href="#L1_1" x="-350" y="-350"/><use xlink:href="#L1_1" x="0" y="-350"/><use xlink:href="#L1_1" x="350" y="-350"/><use xlink:href="#L1_1" x="-350" y="0"/><use xlink:href="#L1_1" x="0" y="0"/><use xlink:href="#L1_1" x="350" y="0"/><use xlink:href="#L1_1" x="-350" y="350"/><use xlink:href="#L1_1" x="0" y="350"/><use xlink:href="#L1_1" x="350" y="350"/></pattern><rect x="0" y="0" width="100%" height="100%" fill="url(#pattern_L1_1)"/></g><g fi:class="KUsePattern" opacity="0.24"><pattern id="pattern_L1_2" width="350" height="350" patternUnits="userSpaceOnUse"><use xlink:href="#L1_2" x="-350" y="-350"/><use xlink:href="#L1_2" x="0" y="-350"/><use xlink:href="#L1_2" x="350" y="-350"/><use xlink:href="#L1_2" x="-350" y="0"/><use xlink:href="#L1_2" x="0" y="0"/><use xlink:href="#L1_2" x="350" y="0"/><use xlink:href="#L1_2" x="-350" y="350"/><use xlink:href="#L1_2" x="0" y="350"/><use xlink:href="#L1_2" x="350" y="350"/></pattern><rect x="0" y="0" width="100%" height="100%" fill="url(#pattern_L1_2)"/></g><g fi:class="KUsePattern" opacity="0.1"><pattern id="pattern_L1_3" width="350" height="350" patternUnits="userSpaceOnUse"><use xlink:href="#L1_3" x="-350" y="-350"/><use xlink:href="#L1_3" x="0" y="-350"/><use xlink:href="#L1_3" x="350" y="-350"/><use xlink:href="#L1_3" x="-350" y="0"/><use xlink:href="#L1_3" x="0" y="0"/><use xlink:href="#L1_3" x="350" y="0"/><use xlink:href="#L1_3" x="-350" y="350"/><use xlink:href="#L1_3" x="0" y="350"/><use xlink:href="#L1_3" x="350" y="350"/></pattern><rect x="0" y="0" width="100%" height="100%" fill="url(#pattern_L1_3)"/></g></svg>