<svg id="visual" viewBox="0 0 1920 1080" width="1920" height="1080" xmlns="http://www.w3.org/2000/svg" xmlns:xlink="http://www.w3.org/1999/xlink" version="1.1"><rect x="0" y="0" width="1920" height="1080" fill="#fffbea"></rect><path d="M0 862L45.7 837C91.3 812 182.7 762 274.2 752.7C365.7 743.3 457.3 774.7 548.8 792.3C640.3 810 731.7 814 823 826.8C914.3 839.7 1005.7 861.3 1097 857.3C1188.3 853.3 1279.7 823.7 1371.2 798.8C1462.7 774 1554.3 754 1645.8 761.3C1737.3 768.7 1828.7 803.3 1874.3 820.7L1920 838L1920 1081L1874.3 1081C1828.7 1081 1737.3 1081 1645.8 1081C1554.3 1081 1462.7 1081 1371.2 1081C1279.7 1081 1188.3 1081 1097 1081C1005.7 1081 914.3 1081 823 1081C731.7 1081 640.3 1081 548.8 1081C457.3 1081 365.7 1081 274.2 1081C182.7 1081 91.3 1081 45.7 1081L0 1081Z" fill="#81d0c5" stroke-linecap="round" stroke-linejoin="miter"></path></svg>